<svg xmlns="http://www.w3.org/2000/svg" viewBox="0 0 48 48" width="48" height="48">
  <rect width="48" height="48" rx="12" fill="#9B8EC4"/>
  <!-- Heart -->
  <path d="M24 32c-4-3-8-6-8-10 0-3 2-5 5-5 2 0 3 1 3 2 0-1 1-2 3-2 3 0 5 2 5 5 0 4-4 7-8 10z" fill="#fff" opacity="0.9"/>
  <!-- Sparkle UL -->
  <line x1="11" y1="9" x2="13" y2="9" stroke="#fff" stroke-width="1.5" stroke-linecap="round" opacity="0.7"/>
  <line x1="12" y1="8" x2="12" y2="10" stroke="#fff" stroke-width="1.5" stroke-linecap="round" opacity="0.7"/>
  <!-- Sparkle UR -->
  <line x1="36" y1="6" x2="38" y2="6" stroke="#fff" stroke-width="1.5" stroke-linecap="round" opacity="0.7"/>
  <line x1="37" y1="5" x2="37" y2="7" stroke="#fff" stroke-width="1.5" stroke-linecap="round" opacity="0.7"/>
  <!-- Sparkle LR -->
  <line x1="39" y1="27" x2="42" y2="27" stroke="#fff" stroke-width="1.5" stroke-linecap="round" opacity="0.6"/>
  <line x1="40" y1="26" x2="40" y2="28" stroke="#fff" stroke-width="1.5" stroke-linecap="round" opacity="0.6"/>
  <!-- Star accent -->
  <polygon points="24,12 27,20 36,20 28,25 31,33 24,28 17,33 20,25 12,20 21,20" fill="#fff" opacity="0.15"/>
</svg>
