<svg xmlns="http://www.w3.org/2000/svg" viewBox="0 0 32 32" shape-rendering="crispEdges">
  <rect width="32" height="32" fill="#F0EDF5"/>
  <!-- helmet -->
  <rect x="9" y="2" width="14" height="7" fill="#6B7B7B"/>
  <rect x="7" y="4" width="3" height="5" fill="#6B7B7B"/>
  <rect x="22" y="4" width="3" height="5" fill="#6B7B7B"/>
  <rect x="8" y="7" width="16" height="2" fill="#5A6A6A"/>
  <!-- face -->
  <rect x="11" y="7" width="10" height="9" fill="#F5D5C8"/>
  <rect x="10" y="9" width="1" height="6" fill="#F5D5C8"/>
  <rect x="21" y="9" width="1" height="6" fill="#F5D5C8"/>
  <!-- eyes -->
  <rect x="12" y="10" width="3" height="2" fill="#3A3A4A"/>
  <rect x="17" y="10" width="3" height="2" fill="#3A3A4A"/>
  <rect x="13" y="10" width="1" height="1" fill="#FFF"/>
  <rect x="18" y="10" width="1" height="1" fill="#FFF"/>
  <!-- serious mouth -->
  <rect x="14" y="14" width="4" height="1" fill="#C48B7B"/>
  <!-- armor top -->
  <rect x="8" y="16" width="16" height="9" fill="#7B8E9B"/>
  <rect x="7" y="18" width="1" height="4" fill="#7B8E9B"/>
  <rect x="24" y="18" width="1" height="4" fill="#7B8E9B"/>
  <!-- armor detail -->
  <rect x="12" y="17" width="8" height="1" fill="#8EA0AB"/>
  <rect x="14" y="20" width="4" height="2" fill="#8EA0AB"/>
  <!-- shield -->
  <rect x="20" y="17" width="5" height="8" fill="#9B9BC4"/>
  <rect x="21" y="18" width="3" height="6" fill="#B4B4D8"/>
  <!-- hands -->
  <rect x="6" y="19" width="2" height="4" fill="#F5D5C8"/>
  <rect x="15" y="20" width="2" height="4" fill="#F5D5C8"/>
  <!-- pants -->
  <rect x="10" y="25" width="4" height="4" fill="#4A5A6A"/>
  <rect x="18" y="25" width="4" height="4" fill="#4A5A6A"/>
  <!-- boots -->
  <rect x="9" y="29" width="6" height="2" fill="#5A5A6A"/>
  <rect x="17" y="29" width="6" height="2" fill="#5A5A6A"/>
</svg>
